<?xml version="1.0" encoding="UTF-8" standalone="no"?>
<!-- Created with Inkscape (http://www.inkscape.org/) -->

<svg
   xmlns:dc="http://purl.org/dc/elements/1.1/"
   xmlns:cc="http://creativecommons.org/ns#"
   xmlns:rdf="http://www.w3.org/1999/02/22-rdf-syntax-ns#"
   xmlns:svg="http://www.w3.org/2000/svg"
   xmlns="http://www.w3.org/2000/svg"
   xmlns:sodipodi="http://sodipodi.sourceforge.net/DTD/sodipodi-0.dtd"
   xmlns:inkscape="http://www.inkscape.org/namespaces/inkscape"
   width="800"
   height="600"
   viewBox="0 0 211.66667 158.75"
   version="1.1"
   id="svg6639"
   inkscape:version="0.92.4 (unknown)"
   sodipodi:docname="cloud_bg.svg">
  <defs
     id="defs6633" />
  <sodipodi:namedview
     id="base"
     pagecolor="#ffffff"
     bordercolor="#666666"
     borderopacity="1.0"
     inkscape:pageopacity="0.0"
     inkscape:pageshadow="2"
     inkscape:zoom="0.35"
     inkscape:cx="-268.57143"
     inkscape:cy="1017.1429"
     inkscape:document-units="mm"
     inkscape:current-layer="layer1"
     showgrid="false"
     units="px"
     inkscape:window-width="1920"
     inkscape:window-height="1016"
     inkscape:window-x="1920"
     inkscape:window-y="27"
     inkscape:window-maximized="1" />
  <metadata
     id="metadata6636">
    <rdf:RDF>
      <cc:Work
         rdf:about="">
        <dc:format>image/svg+xml</dc:format>
        <dc:type
           rdf:resource="http://purl.org/dc/dcmitype/StillImage" />
        <dc:title></dc:title>
      </cc:Work>
    </rdf:RDF>
  </metadata>
  <g
     inkscape:label="Calque 1"
     inkscape:groupmode="layer"
     id="layer1"
     transform="translate(0,-138.25001)">
    <path
       inkscape:connector-curvature="0"
       style="fill:#80e5ff;fill-opacity:1;stroke:#0d85f2;stroke-width:1.57649291;stroke-linecap:round;stroke-linejoin:round;stroke-miterlimit:4;stroke-dasharray:none;stroke-opacity:1"
       d="m 198.32044,243.60513 a 31.314229,29.628077 0 0 0 -25.07216,11.93762 19.752053,19.752053 0 0 0 -4.79672,-0.61651 19.752053,19.752053 0 0 0 -19.75202,19.75202 19.752053,19.752053 0 0 0 0.0327,0.91208 c -8.61499,2.62333 -14.7263,9.43921 -14.7263,17.4755 v 0.0796 c 0,2.16962 0.45043,4.24818 1.27024,6.18146 h 25.3119 l 0.458,-0.71635 a 18.587967,18.561667 0 0 1 -2.40626,-4.97607 l -5.67042,-0.11338 a 24.095511,24.061422 0 0 1 -0.66446,-5.49839 24.095511,24.061422 0 0 1 0.0198,-0.54825 l 5.66873,-1.77847 a 18.587967,18.561667 0 0 1 1.23021,-4.61397 l -4.36973,-3.81186 a 24.095511,24.061422 0 0 1 3.55411,-5.20735 l 5.56156,2.30755 a 18.587967,18.561667 0 0 1 3.29294,-2.37748 l -0.90756,-5.81314 a 24.095511,24.061422 0 0 1 6.19612,-1.88055 l 2.77571,5.33876 a 18.587967,18.561667 0 0 1 1.07002,-0.0536 18.587967,18.561667 0 0 1 2.61043,0.20363 l 3.09552,-5.11653 a 24.095511,24.061422 0 0 1 6.06077,2.38425 l -1.28943,5.78099 a 18.587967,18.561667 0 0 1 2.91333,2.46547 l 5.68339,-1.93809 a 24.095511,24.061422 0 0 1 3.21568,5.54069 l -4.61509,3.52817 a 18.587967,18.561667 0 0 1 0.84383,4.32346 l 5.54972,2.14284 a 24.095511,24.061422 0 0 1 -1.03222,6.11659 l -5.67495,-0.25325 a 18.587967,18.561667 0 0 1 -2.51848,4.52822 l 0.0197,0.0361 H 211.508 c 1.1486,0 2.0729,-0.92429 2.0729,-2.0729 v -21.64835 a 14.864297,14.843267 0 0 1 -0.85848,0.24198 l -1.9099,-3.15645 a 11.466743,11.45052 0 0 1 -1.61037,0.12579 11.466743,11.45052 0 0 1 -0.65938,-0.0333 l -1.71303,3.2935 a 14.864297,14.843267 0 0 1 -3.82203,-1.16026 l 0.55955,-3.58625 a 11.466743,11.45052 0 0 1 -2.03115,-1.46597 l -3.43059,1.4231 a 14.864297,14.843267 0 0 1 -2.19247,-3.21229 l 2.69561,-2.35154 a 11.466743,11.45052 0 0 1 -0.75865,-2.84621 l -3.49713,-1.09709 a 14.864297,14.843267 0 0 1 -0.0119,-0.33786 14.864297,14.843267 0 0 1 0.40894,-3.39278 l 3.49882,-0.0694 a 11.466743,11.45052 0 0 1 1.48346,-3.07014 l -1.9189,-3.00077 a 14.864297,14.843267 0 0 1 2.68095,-2.47225 l 2.71083,2.18008 a 11.466743,11.45052 0 0 1 3.37249,-1.38362 l 0.45293,-3.46161 a 14.864297,14.843267 0 0 1 2.17442,-0.17315 14.864297,14.843267 0 0 1 1.45018,0.0728 l 0.68025,3.45031 a 11.466743,11.45052 0 0 1 2.2455,0.66671 v -3.36515 a 31.314229,29.628077 0 0 0 -15.26047,-3.81863 z"
       id="rect4016" />
  </g>
</svg>
